<svg width="1092" height="436" viewBox="0 0 1092 436" fill="none" xmlns="http://www.w3.org/2000/svg">
<path d="M19.0369 174.616L87.6055 22.3209L78.0572 1.19531L0 174.616H19.0369Z" fill="white"/>
<path d="M137.078 174.615H156.115L124.904 105.271H105.867L137.078 174.615Z" fill="white"/>
<path d="M964.794 1.19531H947.428V174.616H964.794V1.19531Z" fill="white"/>
<path d="M980.311 87.9056L1067.02 174.616H1091.55L1004.84 87.9056L1091.55 1.19531H1067.02L980.311 87.9056Z" fill="white"/>
<path d="M335.802 1.19531H248.256V174.616H265.562V18.5612H335.802V1.19531Z" fill="white"/>
<path d="M225.938 1.19531H175.451V18.5612H225.938V1.19531Z" fill="white"/>
<path d="M867.819 174.616V1.19531H850.453V174.616H867.819Z" fill="white"/>
<path d="M632.096 19.2756L614.73 0V174.614H632.096V19.2756Z" fill="white"/>
<path d="M770.844 174.614V0L753.479 19.2756V174.614H770.844Z" fill="white"/>
<path d="M731.16 44.1006L692.788 86.7098L654.416 44.1006V70.0003L692.788 112.669L731.16 70.0003V44.1006Z" fill="white"/>
<path d="M400.672 44.5803C400.672 30.1982 412.309 18.5612 426.691 18.5612H496.095C510.477 18.5612 522.114 30.1982 522.114 44.5803V76.7461H539.48V44.5803C539.48 20.6499 520.085 1.19531 496.095 1.19531H426.691C402.76 1.19531 383.365 20.5902 383.365 44.5803V76.7461H400.731V44.5803H400.672Z" fill="white"/>
<path d="M522.113 131.291C522.113 145.673 510.476 157.31 496.094 157.31H426.69C412.308 157.31 400.671 145.673 400.671 131.291V99.125H383.305V131.291C383.305 155.221 402.7 174.676 426.69 174.676H496.094C520.024 174.676 539.419 155.281 539.419 131.291V99.125H522.053V131.291H522.113Z" fill="white"/>
<path d="M1035.04 372.323C1048.42 372.323 1059.26 361.475 1059.26 348.094C1059.26 334.713 1048.42 323.865 1035.04 323.865C1021.65 323.865 1010.81 334.713 1010.81 348.094C1010.81 361.475 1021.65 372.323 1035.04 372.323Z" fill="white"/>
<path d="M691.775 434.805V261.385H691.835H674.469V434.805H691.835H691.775Z" fill="white"/>
<path d="M19.0369 434.805L87.6055 282.51L78.0572 261.385L0 434.805H19.0369Z" fill="white"/>
<path d="M137.078 434.805H156.115L124.904 365.4H105.867L137.078 434.805Z" fill="white"/>
<path d="M343.204 261.385V391.48C343.204 405.862 331.567 417.499 317.185 417.499H293.672V434.865H317.185C341.115 434.865 360.51 415.47 360.51 391.48V339.442V261.385H343.204Z" fill="white"/>
<path d="M247.838 417.439C233.456 417.439 221.819 405.802 221.819 391.42V261.324H204.453V339.381V391.42C204.453 415.35 223.848 434.805 247.779 434.805H271.291V417.439H247.838Z" fill="white"/>
<path d="M457.482 278.69H552.846C567.228 278.69 578.865 290.327 578.865 304.709V336.875H596.231V304.709C596.231 280.779 576.836 261.324 552.905 261.324H440.176V336.875H457.542V278.69H457.482Z" fill="white"/>
<path d="M578.924 391.42C578.924 405.802 567.287 417.439 552.905 417.439H457.542V359.254H440.176V434.805H552.905C576.836 434.805 596.231 415.41 596.231 391.42V359.254H578.865V391.42H578.924Z" fill="white"/>
<path d="M788.927 305.844C788.927 291.462 800.564 279.825 814.946 279.825H884.351C898.733 279.825 910.37 291.462 910.37 305.844V338.01H927.735V305.844C927.735 281.914 908.341 262.459 884.351 262.459H814.946C791.016 262.459 771.621 281.854 771.621 305.844V338.01H788.987V305.844H788.927Z" fill="white"/>
<path d="M910.308 392.615C910.308 406.997 898.671 418.634 884.289 418.634H814.885C800.503 418.634 788.866 406.997 788.866 392.615V360.449H771.5V392.615C771.5 416.545 790.895 436 814.885 436H884.289C908.219 436 927.614 416.605 927.614 392.615V360.449H910.248V392.615H910.308Z" fill="white"/>
</svg>
